<svg id="Capa_1" data-name="Capa 1" xmlns="http://www.w3.org/2000/svg" viewBox="0 0 16 14"><defs><style>.cls-1{fill:#fff;}</style></defs><title>icon-carrito</title><path class="cls-1" d="M.62.5V.61H2.7l.28,1,0,.08H15.35a.49.49,0,0,1,.4.17.34.34,0,0,1,.09.32c-.08.37-.16.7-.23,1C15.39,4.1,15.18,5,15,5.86L14.7,6.94l-.25,1-.39,1.62H5.15l0,.15,0,.2.06.22,0,.08h.09A1.67,1.67,0,0,1,7,11.36l0,.07h4l0-.07a1.68,1.68,0,0,1,1.58-1.15,1.75,1.75,0,0,1,.4,0,1.66,1.66,0,0,1,1.23,1.63,1.64,1.64,0,0,1-1.29,1.58,2.07,2.07,0,0,1-.35,0A1.65,1.65,0,0,1,11,12.36l0-.07H7l0,.07A1.63,1.63,0,0,1,5.44,13.5H5.23a1.52,1.52,0,0,1-1.35-1.07,1.6,1.6,0,0,1,.58-1.9l0,0,0-.07L2.07,1.55l0-.09H.59a.41.41,0,0,1-.44-.37A.43.43,0,0,1,.31.72.41.41,0,0,1,.62.61V.5M4.91,8.7h8.46l0-.08v0l0,0c.12-.48.23-1,.35-1.45l.09-.38c0-.13.06-.25.1-.38l.25-1c.2-.84.41-1.68.61-2.52a.17.17,0,0,0,0-.07v0l0-.13H3.24l0,.15L4.89,8.61l0,.09m7.66,4h0a.79.79,0,0,0,.57-.25.71.71,0,0,0,.22-.54.79.79,0,0,0-.79-.79h0a.79.79,0,0,0,0,1.58h0m-7.15,0h0a.79.79,0,0,0,.78-.8.78.78,0,0,0-.79-.78.79.79,0,0,0-.79.79.76.76,0,0,0,.23.55.8.8,0,0,0,.56.24"/></svg>