<?xml version="1.0" encoding="utf-8"?>
<!-- Generator: Adobe Illustrator 26.0.2, SVG Export Plug-In . SVG Version: 6.00 Build 0)  -->
<svg version="1.1" id="Layer_1" xmlns="http://www.w3.org/2000/svg" xmlns:xlink="http://www.w3.org/1999/xlink" x="0px" y="0px"
	 viewBox="0 0 504 354.4" style="enable-background:new 0 0 504 354.4;" xml:space="preserve">
<style type="text/css">
	.st0{fill:#FFFFFF;}
</style>
<path class="st0" d="M261.5,201.3c-5.9,0-10.7,4.8-10.7,10.7c0,5.9,4.8,10.7,10.7,10.7c4.4,0,8.2-2.7,9.8-6.5
	c19.1-9.1,54.9-29.6,112.4-36.9c1.3,1.1,2.7,2.3,4.1,3.4c10.7,8.5,20.9,17.4,39.6,25.2c9.1,3.8,24.1,9.9,34.3,14.2
	c14.9,6.3,25.6,18.3,30.6,27c0.8,1.4,1.7,3,2.5,4.9c0.2,0.1,0.4,0.3,0.6,0.5c18.8,24.2,5,72.7-26.4,80.1
	c-73.2,17.3-164.2,32.3-271,4c-51.5-13.6-75.8-58.1-115.6-81.8C39,231,5,204.4,2.4,189.4c-1.7-9.7-4.7-46.8,0.4-48.8
	C9.5,73.5,33.2,37.1,35,33.2c9.3-20.6,35.4-14.1,57.8-9.6c11.8,2.4,19.3,2.8,22.2,4.7c0-11.9,57.5-28.3,91.4-28.3
	c10,0,23.2,10,28.2,19.2c4.9-1.2,16.3-1.6,19.1,2.7c6,9.2,12.8,19.4,20.7,30.5c-2.5-0.3-5.3-0.2-8.2,0.8c-5.8,1.9-11.9,4-18,6.4
	c-5.8,2.3-11.6,4.9-17.2,7.7c-4.6-0.1-9,0-13.1,0.1c-23.3,0.7-49,6.4-56.6,9c-1.4,0.5-2.7,1-4,1.5c-1.3-0.5-2.6-0.8-4.1-0.8
	c-5.9,0-10.7,4.8-10.7,10.7c0,5.9,4.8,10.7,10.7,10.7c4.3,0,8-2.5,9.7-6.2c9-1.1,20.9-3.2,34.8-5.1c-0.1,0.1-0.2,0.2-0.4,0.3
	c-6.6,5.5-11.5,12.5-11.6,17.1c-1.6,0.6-3.1,1.3-4.4,2.1c-1-0.3-2-0.5-3.1-0.5c-5.9,0-10.7,4.8-10.7,10.7c0,5.9,4.8,10.7,10.7,10.7
	c4.1,0,7.6-2.3,9.4-5.7c9.7-3.1,24.9-8,47.2-10.5c-4.7,3.7-8.2,6.7-10.1,8.6c-4.5,4.6-7.9,9.9-9.2,14.2c-0.8,0.2-1.5,0.4-2.1,0.6
	c-1.7,0.6-3.4,1.3-5,2c-1.7-1.1-3.7-1.7-5.8-1.7c-5.9,0-10.7,4.8-10.7,10.7c0,5.9,4.8,10.7,10.7,10.7c4,0,7.5-2.2,9.3-5.5
	c10.8-1.5,26.7-4.6,46.6-7c-3.9,3.2-6.8,5.8-8.4,7.5c-4.5,4.8-7.9,10.3-9.1,14.7c-0.4,0.2-0.8,0.3-1.2,0.5c-1.8,0.8-3.5,1.8-5.2,2.7
	c-1.4-0.7-3.1-1.1-4.8-1.1c-5.9,0-10.7,4.8-10.7,10.7c0,5.9,4.8,10.7,10.7,10.7c4.3,0,8-2.5,9.7-6.1c12.8-3.3,33.4-10.4,61.6-14.5
	c-7.7,6-13.5,11.3-16.1,14.1c-3.2,3.5-5.8,7.3-7.4,10.8c-4.6,2.4-8.1,4.4-10.1,5.8c-0.9,0.6-1.7,1.2-2.5,1.8
	C264,201.5,262.7,201.3,261.5,201.3L261.5,201.3z M324.2,151.7c-14.7,0.7-21.5,0.8-27.9,1.5c-9.6,1.1-19.6,3.1-28.4,5.2
	c6.4-5,14.1-10.9,23.4-17.1c16.4-0.9,34.3-1,53.6,0.5c-4.4,2.2-8.8,4.5-13.2,7c-1.7,1-3.4,1.9-5,3
	C325.8,151.6,325,151.6,324.2,151.7L324.2,151.7z M281.3,82.6c-3,1.4-5.9,2.9-8.9,4.4c-4,2.1-8,4.4-11.9,6.8
	c-5.1,0.2-10.5,0.7-16.4,1.3c-13.9,1.5-25.2,2.7-35.1,4.2c7.5-4.6,16.9-10.3,28.6-16.3C251.4,82,266.1,81.7,281.3,82.6L281.3,82.6z
	 M281.8,64.5c0.4-0.1,0.8-0.3,1.2-0.5c1.4,1.8,2.8,3.7,4.2,5.6c-5-0.2-11-0.5-17.6-0.9C273.5,67.3,277.6,65.9,281.8,64.5L281.8,64.5
	z M297.2,117.8c-4.6,2.5-9.2,5.3-13.6,8.1c-6.4,0-11.1,0-12.7,0c-10.5,0.1-21.5,1.4-31.2,3c7.1-5.4,15.9-12,26.8-19
	c12,0.1,25.5,1,40.4,2.9C303.7,114.4,300.4,116.1,297.2,117.8L297.2,117.8z M293.4,94.6c3.2-1.6,6.5-3.2,9.9-4.8
	c2.1,2.5,4.2,5.1,6.5,7.7C305.5,96.5,300.2,95.4,293.4,94.6L293.4,94.6z M316.3,126.1c4.1-2.2,8.4-4.4,12.9-6.5
	c2,2.2,4.1,4.4,6.2,6.7C330.2,126.3,323.5,126.2,316.3,126.1L316.3,126.1z M369.2,164.9c-8.6,3-28.9,6-48.5,11.8
	c-0.6,0.2-1.1,0.3-1.7,0.5c10.6-7.8,23.7-16.5,39.7-24.8C362,156.6,365.5,160.8,369.2,164.9L369.2,164.9z M9.5,158.8
	c0.1,9.8,1.3,23.2,2.3,29c0.7,4.2,8.2,13.1,21.4,23.9c13.5,11.2,32.3,24,54.2,37c13,7.8,23.1,16.1,41,32.9c0.8,0.7,3.5,3.3,3.9,3.7
	c14.1,13.2,21.9,19.9,31.2,26.5c11.9,8.4,23.8,14.2,37,17.7c48.6,12.9,96.4,17.3,145.1,14.8c39-2,76.1-8.2,121.2-18.8
	c11.2-2.6,20.7-13.1,25.1-27.3c3.9-12.6,3.1-25.6-2-34.6c-1.6,0.4-3.6,1-6.4,1.9c-2.5,0.8-13.4,4.5-14.7,4.9
	c-7.1,2.4-13.4,4.4-20,6.3c-26.6,7.7-53.5,12.5-83.5,13.9c0,0-10.8,0.5-15.2,0.7c-42.2,1.9-81.5,1.1-120.3-4.4
	c-9.6-1.3-18.9-3-27.7-4.9c-17.6-3.8-40-13.4-66.1-27.6C117,244,97.5,232,78.8,219.8c-9-5.9-20.3-15.2-34.2-27.9
	c-2.5-2.3-5.2-4.7-7.9-7.3C31.4,179.8,18.9,167.8,9.5,158.8L9.5,158.8z"/>
</svg>
